<?xml version="1.0" encoding="iso-8859-1"?>
<!DOCTYPE svg PUBLIC "-//W3C//DTD SVG 1.1//EN" "http://www.w3.org/Graphics/SVG/1.1/DTD/svg11.dtd">
<svg xmlns="http://www.w3.org/2000/svg">
    <svg fill="#000000" version="1.1" id="Capa_1" xmlns="http://www.w3.org/2000/svg" xmlns:xlink="http://www.w3.org/1999/xlink" width="800" height="800" viewBox="0 0 234.287 234.288" xml:space="preserve">
		<g>
			<g id="_x38_2_22_">
				<g>
					<path d="M173.832,0H26.931v234.288h180.426V32.504L173.832,0z M191.757,218.683H42.53V15.6h123.269v24.75h25.958V218.683z" />
				</g>
			</g>
		</g>
	</svg>
	<svg height="800px" width="800px" version="1.1" id="_x32_" xmlns="http://www.w3.org/2000/svg" xmlns:xlink="http://www.w3.org/1999/xlink" 
	 viewBox="0 0 512 512"  xml:space="preserve">
		<style type="text/css">
			.st0{fill:#000000;}
		</style>
		<g>
			<path class="st0" d="M176.829,253.762v53.82c0,11.179,9.06,20.235,20.238,20.235h37.676v-94.288h-37.676
		C185.888,233.528,176.829,242.597,176.829,253.762z"/>
			<path class="st0" d="M328.448,195.775c-2.036-1.257-4.573-1.355-6.706-0.272l-74.874,38.025v94.288l74.874,38.032
		c2.133,1.082,4.671,0.984,6.706-0.272c2.036-1.243,3.278-3.47,3.278-5.858V201.632
		C331.726,199.238,330.483,197.017,328.448,195.775z"/>
		</g>
	</svg>
</svg>