<?xml version="1.0" encoding="iso-8859-1"?>
<!DOCTYPE svg PUBLIC "-//W3C//DTD SVG 1.1//EN" "http://www.w3.org/Graphics/SVG/1.1/DTD/svg11.dtd">
<svg xmlns="http://www.w3.org/2000/svg">
    <svg fill="#000000" version="1.1" id="Capa_1" xmlns="http://www.w3.org/2000/svg" xmlns:xlink="http://www.w3.org/1999/xlink" width="800" height="800" viewBox="0 0 234.287 234.288" xml:space="preserve">
		<g>
			<g id="_x38_2_22_">
				<g>
					<path d="M173.832,0H26.931v234.288h180.426V32.504L173.832,0z M191.757,218.683H42.53V15.6h123.269v24.75h25.958V218.683z" />
				</g>
			</g>
		</g>
	</svg>
	<svg height="800" width="800" version="1.1" id="_x32_" xmlns="http://www.w3.org/2000/svg" xmlns:xlink="http://www.w3.org/1999/xlink" viewBox="0 0 512 512" xml:space="preserve">
		<style type="text/css">	.st0{fill:#000000;}</style>
		<g>
			<path class="st0" d="M315.315,186.534h-11.772v12.234H203.348v-12.234h-11.779h-11.794h-14.73v139.024h38.302v-12.234h100.195   v12.234h38.302V186.534h-14.729H315.315z M191.569,313.645h-11.794v-18.546h11.794V313.645z M191.569,281.871h-11.794v-18.546   h11.794V281.871z M191.569,250.09h-11.794v-18.531h11.794V250.09z M191.569,218.316h-11.794v-18.538h11.794V218.316z    M303.543,299.753H203.348v-87.412h100.195V299.753z M327.116,313.645h-11.802v-18.546h11.802V313.645z M327.116,281.871h-11.802   v-18.546h11.802V281.871z M327.116,250.09h-11.802v-18.531h11.802V250.09z M327.116,218.316h-11.802v-18.538h11.802V218.316z" />
		</g>
	</svg>
</svg>