<?xml version="1.0" encoding="UTF-8"?>
<!DOCTYPE svg PUBLIC "-//W3C//DTD SVG 1.1//EN" "http://www.w3.org/Graphics/SVG/1.1/DTD/svg11.dtd">
<svg fill="#000000" version="1.1" id="Layer_1" xmlns="http://www.w3.org/2000/svg" xmlns:xlink="http://www.w3.org/1999/xlink" width="800px" height="800px" viewBox="0 0 100 100" enable-background="new 0 0 100 100" xml:space="preserve">
<g>
	<path d="M84.133,49.756c0-18.448-15.01-33.457-33.458-33.457S17.218,31.308,17.218,49.756c0,18.449,15.009,33.458,33.457,33.458   S84.133,68.205,84.133,49.756z M50.675,79.214c-16.243,0-29.457-13.215-29.457-29.458c0-16.242,13.214-29.457,29.457-29.457   c16.243,0,29.458,13.215,29.458,29.457C80.133,65.999,66.918,79.214,50.675,79.214z"/>
    <circle cx="50.5" cy="35.0" r="4.0" />
    <circle cx="50.5" cy="45.0" r="4.0" />
    <circle cx="50.5" cy="65.0" r="4.0" />
    <rect x="46.5" y="45.0" width="8.0" height="20.0" />
</g>
</svg>
